<svg width="24" height="24" viewBox="0 0 24 24" fill="none" xmlns="http://www.w3.org/2000/svg">
<path d="M4.70994 3.28994C4.6167 3.1967 4.50601 3.12274 4.38419 3.07228C4.26237 3.02182 4.1318 2.99585 3.99994 2.99585C3.86808 2.99585 3.73751 3.02182 3.61569 3.07228C3.49387 3.12274 3.38318 3.1967 3.28994 3.28994C3.10164 3.47825 2.99585 3.73364 2.99585 3.99994C2.99585 4.26624 3.10164 4.52164 3.28994 4.70994L8.91994 10.3399C8.56375 11.0026 8.43053 11.7623 8.54003 12.5066C8.64953 13.2509 8.99593 13.9401 9.52788 14.472C10.0598 15.004 10.749 15.3503 11.4933 15.4599C12.2376 15.5694 12.9973 15.4361 13.6599 15.0799L19.2899 20.7099C19.3829 20.8037 19.4935 20.8781 19.6154 20.9288C19.7372 20.9796 19.8679 21.0057 19.9999 21.0057C20.132 21.0057 20.2627 20.9796 20.3845 20.9288C20.5064 20.8781 20.617 20.8037 20.7099 20.7099C20.8037 20.617 20.8781 20.5064 20.9288 20.3845C20.9796 20.2627 21.0057 20.132 21.0057 19.9999C21.0057 19.8679 20.9796 19.7372 20.9288 19.6154C20.8781 19.4935 20.8037 19.3829 20.7099 19.2899L4.70994 3.28994ZM11.9999 13.4999C11.6021 13.4999 11.2206 13.3419 10.9393 13.0606C10.658 12.7793 10.4999 12.3978 10.4999 11.9999V11.9299L12.0599 13.4899L11.9999 13.4999Z" fill="#172029"/>
<path d="M12.2199 17.0001C7.91995 17.1001 5.09995 13.4101 4.21995 12.0001C4.84642 11.0008 5.59931 10.0866 6.45995 9.28012L4.99995 7.87012C3.87127 8.93359 2.90435 10.1566 2.12995 11.5001C2.04218 11.6521 1.99597 11.8246 1.99597 12.0001C1.99597 12.1757 2.04218 12.3481 2.12995 12.5001C2.75995 13.5901 6.12995 19.0001 12.0199 19.0001H12.2699C13.3775 18.9673 14.4707 18.7405 15.4999 18.3301L13.9199 16.7501C13.3643 16.8963 12.7941 16.9801 12.2199 17.0001Z" fill="#172029"/>
<path d="M21.87 11.5001C21.23 10.3901 17.7 4.82012 11.73 5.00012C10.6225 5.03297 9.52924 5.25974 8.5 5.67012L10.08 7.25012C10.6356 7.10395 11.2058 7.0201 11.78 7.00012C16.07 6.89012 18.89 10.5901 19.78 12.0001C19.1381 13.0024 18.3682 13.9168 17.49 14.7201L19 16.1301C20.1428 15.0694 21.1234 13.8463 21.91 12.5001C21.9918 12.3446 22.0311 12.1703 22.0241 11.9948C22.0171 11.8192 21.9639 11.6486 21.87 11.5001Z" fill="#172029"/>
</svg>
